<?xml version="1.0" encoding="utf-8"?>
<svg xmlns="http://www.w3.org/2000/svg" viewBox="9.572 13.404 84.482 106.596" width="200" height="240" xmlns:bx="https://boxy-svg.com" preserveAspectRatio="none"><defs><radialGradient id="capGrad" cx="40%" cy="30%" r="65%"><stop offset="0" style="stop-color: rgb(255, 133, 107);"/><stop offset="0.5" style="stop-color: rgb(210, 31, 0);"/><stop offset="1" style="stop-color: rgb(154, 25, 12);"/></radialGradient><radialGradient id="stemGrad" cx="35%" cy="30%" r="70%"><stop offset="0" stop-color="#fff8f0"/><stop offset="1" stop-color="#e8dcc8"/></radialGradient><radialGradient id="spotGrad" cx="35%" cy="30%" r="70%"><stop offset="0" stop-color="#ffffff"/><stop offset="1" stop-color="#eeddc8"/></radialGradient><radialGradient id="eyeWhite" cx="35%" cy="30%" r="70%"><stop offset="0" stop-color="#ffffff"/><stop offset="1" stop-color="#dddddd"/></radialGradient><filter id="softShadow"><feDropShadow dx="2" dy="4" stdDeviation="4" flood-color="#000" flood-opacity="0.35"/></filter><filter id="capGlow"><feDropShadow dx="0" dy="0" stdDeviation="3" flood-color="#ff3300" flood-opacity="0.4"/></filter><bx:export><bx:file format="svg" path="lanty.svg"/></bx:export></defs><g filter="url(#softShadow)"><path d="M 30 82 C 27.333 102 28.667 114 34 118 L 66 118 C 71.333 114 72.667 102 70 82 C 65.755 80.079 57.154 77.728 49.154 77.728 C 41.154 77.728 35.454 80.441 30 82 Z" fill="url(#stemGrad)" stroke="#c8b89a" stroke-width="1"/><path d="M 30.486 85.103 C 29.153 98.436 29.82 109.103 32.486 117.103" fill="none" stroke="#c8b89a" stroke-width="1.5" stroke-linecap="round" opacity="0.5"/><path d="M 69.462 85 C 70.796 98.333 70.129 109 67.462 117" fill="none" stroke="#c8b89a" stroke-width="1.5" stroke-linecap="round" opacity="0.5"/><path d="M 11.123 88.405 C 11.123 59.072 23.817 38.568 50.484 34.568 C 77.151 38.568 90.868 59.072 90.868 88.405 C 80.868 99.072 66.184 80.449 49.517 81.783 C 32.851 80.449 21.123 99.072 11.123 88.405 Z" fill="url(#capGrad)" filter="url(#capGlow)"/><path d="M 12.21 88.326 C 22.21 94.992 32.662 73.832 49.329 75.166 C 65.995 73.832 80.018 95.17 90.018 88.504 C 80.018 99.17 65.995 79.832 49.329 81.166 C 32.662 79.832 22.21 98.992 12.21 88.326 Z" opacity="0.4" style="fill: rgb(212, 99, 88);"/><path d="M 33.703 41.41 C 38.251 39.669 46.253 36.807 50.302 36.667 C 55.554 36.486 65.792 40.442 69.973 43.454" fill="none" stroke="#ff9977" stroke-width="4" stroke-linecap="round" opacity="0.5" style=""/><circle cx="50.484" cy="57.568" r="10" fill="url(#spotGrad)"/><circle cx="27.484" cy="72.568" r="7" fill="url(#spotGrad)"/><circle cx="73.484" cy="72.568" r="7" fill="url(#spotGrad)"/><circle cx="38.484" cy="44.568" r="5" fill="url(#spotGrad)"/><circle cx="65.484" cy="46.568" r="5" fill="url(#spotGrad)"/></g><ellipse cx="40.56" cy="93.457" rx="6" ry="6.5" fill="url(#eyeWhite)"/><ellipse cx="58.56" cy="93.457" rx="6" ry="6.5" fill="url(#eyeWhite)"/><circle cx="41.56" cy="94.457" r="3.5" fill="#1a0a00"/><circle cx="59.56" cy="94.457" r="3.5" fill="#1a0a00"/><circle cx="43.06" cy="92.957" r="1.2" fill="#fff"/><circle cx="61.06" cy="92.957" r="1.2" fill="#fff"/><path d="M43,109 Q50,114 57,109" fill="none" stroke="#8a5a3a" stroke-width="1.8" stroke-linecap="round"/><ellipse cx="36.232" cy="103.819" rx="4" ry="2.5" fill="#ff8866" opacity="0.4"/><ellipse cx="63.305" cy="104.332" rx="4" ry="2.5" fill="#ff8866" opacity="0.4"/></svg>